<?xml version="1.0" encoding="UTF-8"?>
<!DOCTYPE svg PUBLIC "-//W3C//DTD SVG 1.1//EN" "http://www.w3.org/Graphics/SVG/1.1/DTD/svg11.dtd">
<svg xmlns="http://www.w3.org/2000/svg" version="1.1" width="1252px" height="1252px" style="shape-rendering:geometricPrecision; text-rendering:geometricPrecision; image-rendering:optimizeQuality; fill-rule:evenodd; clip-rule:evenodd" xmlns:xlink="http://www.w3.org/1999/xlink">
<g><path style="opacity:1" fill="#00a8f2" d="M 637.5,136.5 C 657.32,137.16 673.487,145.16 686,160.5C 690,165.833 694,171.167 698,176.5C 853.837,437.503 1009.17,698.836 1164,960.5C 1170.88,972.049 1176.88,984.049 1182,996.5C 1200.3,1071.08 1171.8,1115.58 1096.5,1130C 958.167,1130.67 819.833,1130.67 681.5,1130C 659.638,1128.99 641.805,1120.15 628,1103.5C 617.775,1087.03 616.108,1069.69 623,1051.5C 625.842,1042.81 629.509,1034.48 634,1026.5C 663.409,973.785 694.409,922.118 727,871.5C 740.409,853.96 758.076,843.626 780,840.5C 800.032,842.183 816.699,850.516 830,865.5C 841.013,882.283 843.347,900.283 837,919.5C 830.678,935.811 823.011,951.478 814,966.5C 809.314,975.225 805.814,984.392 803.5,994C 803.903,996.887 805.236,999.221 807.5,1001C 813.837,1003.92 820.504,1005.58 827.5,1006C 890.833,1006.67 954.167,1006.67 1017.5,1006C 1036.54,1003.57 1041.04,994.073 1031,977.5C 906.423,763.34 781.09,549.674 655,336.5C 651.763,332.079 647.596,329.079 642.5,327.5C 638.612,328.36 635.445,330.36 633,333.5C 626.608,342.228 620.608,351.228 615,360.5C 469.065,606.761 322.731,852.761 176,1098.5C 149.134,1132.85 117.301,1138.69 80.5,1116C 60.8684,1097.98 55.0351,1076.15 63,1050.5C 65.508,1042.48 68.8413,1034.82 73,1027.5C 241.269,743.572 409.935,459.905 579,176.5C 589.48,160.018 603.647,147.851 621.5,140C 626.871,138.362 632.204,137.195 637.5,136.5 Z"/></g>
<g><path style="opacity:0.994" fill="#00a8f2" d="M 640.5,788.5 C 638.143,788.663 635.81,788.497 633.5,788C 598.087,773.862 562.753,759.529 527.5,745C 526.601,743.348 525.601,741.848 524.5,740.5C 543.725,707.058 563.225,673.724 583,640.5C 608.037,602.956 640.204,595.456 679.5,618C 702.262,637.456 708.428,661.289 698,689.5C 695.606,695.287 692.94,700.954 690,706.5C 673.74,734.027 657.24,761.361 640.5,788.5 Z"/></g>
<g><path style="opacity:0.994" fill="#0ed144" d="M 524.5,740.5 C 525.601,741.848 526.601,743.348 527.5,745C 562.753,759.529 598.087,773.862 633.5,788C 635.81,788.497 638.143,788.663 640.5,788.5C 579.182,892.47 517.348,996.136 455,1099.5C 443.422,1115.04 428.256,1125.2 409.5,1130C 378.677,1132.68 356.51,1120.18 343,1092.5C 338.192,1076.95 338.858,1061.62 345,1046.5C 351.475,1032.88 358.475,1019.55 366,1006.5C 418.608,917.605 471.441,828.938 524.5,740.5 Z"/></g>
</svg>
