<?xml version="1.0" encoding="UTF-8"?>
<!DOCTYPE svg PUBLIC "-//W3C//DTD SVG 1.1//EN" "http://www.w3.org/Graphics/SVG/1.1/DTD/svg11.dtd">
<svg xmlns="http://www.w3.org/2000/svg" version="1.1" width="1252px" height="1252px" style="shape-rendering:geometricPrecision; text-rendering:geometricPrecision; image-rendering:optimizeQuality; fill-rule:evenodd; clip-rule:evenodd" xmlns:xlink="http://www.w3.org/1999/xlink">
<g><path style="opacity:1" fill="#00a8f2" d="M 637.5,136.5 C 657.32,137.16 673.487,145.16 686,160.5C 690,165.833 694,171.167 698,176.5C 853.837,437.503 1009.17,698.836 1164,960.5C 1170.88,972.049 1176.88,984.049 1182,996.5C 1200.3,1071.08 1171.8,1115.58 1096.5,1130C 958.167,1130.67 819.833,1130.67 681.5,1130C 659.638,1128.99 641.805,1120.15 628,1103.5C 617.775,1087.03 616.108,1069.69 623,1051.5C 625.842,1042.81 629.509,1034.48 634,1026.5C 663.409,973.785 694.409,922.118 727,871.5C 740.409,853.96 758.076,843.626 780,840.5C 800.032,842.183 816.699,850.516 830,865.5C 841.013,882.283 843.347,900.283 837,919.5C 830.678,935.811 823.011,951.478 814,966.5C 809.314,975.225 805.814,984.392 803.5,994C 803.903,996.887 805.236,999.221 807.5,1001C 813.837,1003.92 820.504,1005.58 827.5,1006C 890.833,1006.67 954.167,1006.67 1017.5,1006C 1036.54,1003.57 1041.04,994.073 1031,977.5C 906.423,763.34 781.09,549.674 655,336.5C 651.763,332.079 647.596,329.079 642.5,327.5C 638.612,328.36 635.445,330.36 633,333.5C 626.608,342.228 620.608,351.228 615,360.5C 469.065,606.761 322.731,852.761 176,1098.5C 149.134,1132.85 117.301,1138.69 80.5,1116C 60.8684,1097.98 55.0351,1076.15 63,1050.5C 65.508,1042.48 68.8413,1034.82 73,1027.5C 241.269,743.572 409.935,459.905 579,176.5C 589.48,160.018 603.647,147.851 621.5,140C 626.871,138.362 632.204,137.195 637.5,136.5 Z"/></g>
<g><path style="opacity:0.994" fill="#8cfefa" d="M 639.5,788.5 C 637.801,788.66 636.134,788.494 634.5,788C 598.558,773.911 562.891,759.244 527.5,744C 525.963,742.89 525.297,741.39 525.5,739.5C 544.725,706.058 564.225,672.724 584,639.5C 609.687,602.824 641.854,595.99 680.5,619C 701.763,638.219 707.596,661.385 698,688.5C 695.273,694.954 692.273,701.288 689,707.5C 672.977,734.897 656.477,761.897 639.5,788.5 Z"/></g>
<g><path style="opacity:1" fill="#c3fe10" d="M 525.5,739.5 C 525.297,741.39 525.963,742.89 527.5,744C 562.891,759.244 598.558,773.911 634.5,788C 636.134,788.494 637.801,788.66 639.5,788.5C 578.363,893.439 516.197,997.773 453,1101.5C 439.685,1118.63 422.185,1128.3 400.5,1130.5C 374.389,1129.04 355.555,1116.71 344,1093.5C 339.369,1079.18 339.369,1064.85 344,1050.5C 348.532,1039.1 353.866,1028.1 360,1017.5C 414.941,924.605 470.108,831.938 525.5,739.5 Z"/></g>
</svg>
